<?xml version="1.0" encoding="UTF-8" standalone="no"?>
<svg
   xmlns:dc="http://purl.org/dc/elements/1.1/"
   xmlns:cc="http://creativecommons.org/ns#"
   xmlns:rdf="http://www.w3.org/1999/02/22-rdf-syntax-ns#"
   xmlns:svg="http://www.w3.org/2000/svg"
   xmlns="http://www.w3.org/2000/svg"
   xmlns:sodipodi="http://sodipodi.sourceforge.net/DTD/sodipodi-0.dtd"
   xmlns:inkscape="http://www.inkscape.org/namespaces/inkscape"
   width="210mm"
   height="297mm"
   viewBox="0 0 210 297"
   version="1.1"
   id="svg3906"
   inkscape:version="1.0 (4035a4fb49, 2020-05-01)"
   sodipodi:docname="findit_pi_toggled.svg">
  <defs
     id="defs3900">
    <marker
       style="overflow:visible"
       refY="0.0"
       refX="0.0"
       orient="auto"
       id="DistanceX">
      <path
         id="path3908"
         style="stroke:#000000; stroke-width:0.5"
         d="M 3,-3 L -3,3 M 0,-5 L  0,5" />
    </marker>
    <pattern
       y="0"
       x="0"
       height="8"
       width="8"
       patternUnits="userSpaceOnUse"
       id="Hatch">
      <path
         id="path3911"
         linecap="square"
         stroke-width="0.25"
         stroke="#000000"
         d="M8 4 l-4,4" />
      <path
         id="path3913"
         linecap="square"
         stroke-width="0.25"
         stroke="#000000"
         d="M6 2 l-4,4" />
      <path
         id="path3915"
         linecap="square"
         stroke-width="0.25"
         stroke="#000000"
         d="M4 0 l-4,4" />
    </pattern>
    <symbol
       id="*MODEL_SPACE" />
    <symbol
       id="*PAPER_SPACE" />
  </defs>
  <sodipodi:namedview
     id="base"
     pagecolor="#ffffff"
     bordercolor="#666666"
     borderopacity="1.0"
     inkscape:pageopacity="0.0"
     inkscape:pageshadow="2"
     inkscape:zoom="22.627417"
     inkscape:cx="26.378361"
     inkscape:cy="16.472938"
     inkscape:document-units="px"
     inkscape:current-layer="svg3906"
     inkscape:document-rotation="0"
     showgrid="false"
     inkscape:window-width="1920"
     inkscape:window-height="1011"
     inkscape:window-x="-9"
     inkscape:window-y="-9"
     inkscape:window-maximized="1"
     showborder="false"
     inkscape:pagecheckerboard="true" />
  <metadata
     id="metadata3903">
    <rdf:RDF>
      <cc:Work
         rdf:about="">
        <dc:format>image/svg+xml</dc:format>
        <dc:type
           rdf:resource="http://purl.org/dc/dcmitype/StillImage" />
        <dc:title></dc:title>
      </cc:Work>
    </rdf:RDF>
  </metadata>
  <g
     id="g4262"
     transform="matrix(0.01093817,0,0,0.01093818,-7.9375258,3.5966888)"
     inkscape:label="ICON"
     style="display:inline">
    <path
       d="M 725.66925,-328.81891 H 1451.3386 V 396.8504 H 725.66925 Z"
       inkscape:label="BACKGROUND"
       style="display:inline;opacity:0.982;fill:#666666;fill-opacity:1;fill-rule:nonzero;stroke-width:1.00157"
       id="rect4294" />
    <g
       id="g4090"
       inkscape:label="END">
      <path
         id="path4088"
         style="fill:#f9f9f9;stroke:#4c0000;stroke-linecap:round"
         d="m 1299.509,215.43307 a 29.587756,29.587756 0 1 0 -59.1755,0 29.587756,29.587756 0 1 0 59.1755,0 z"
         inkscape:label="circleoutside" />
      <path
         id="path4086"
         style="fill:#808080;stroke:#4c0000;stroke-linecap:round"
         d="m 1284.3909,215.43307 a 14.46965,14.46965 0 1 0 -28.9393,0 14.46965,14.46965 0 1 0 28.9393,0 z"
         inkscape:label="circleinside" />
    </g>
    <g
       id="g4102"
       inkscape:label="ENDBLANK"
       style="fill:#ffffff">
      <path
         d="m 991.64227,-760.26373 h 58.03453 v 29.15796 h -58.03453 z"
         transform="rotate(45)"
         inkscape:label="End blank"
         style="opacity:1;fill:#666666;fill-opacity:0.776471;fill-rule:nonzero;stroke-width:1.00157"
         id="rect4452" />
    </g>
    <g
       id="g4124"
       inkscape:label="HANDLE">
      <path
         d="m -1049.6768,715.98761 h 245.39613 v 15.11816 h -245.39613 z"
         transform="rotate(-135)"
         inkscape:label="HandleL"
         style="opacity:1;fill:#ffffff;fill-opacity:1;fill-rule:nonzero;stroke-width:1.00157"
         id="rect4446" />
      <path
         d="m -1050.3041,760.10535 h 245.39611 v 15.11816 h -245.39611 z"
         transform="rotate(-135)"
         inkscape:label="HandleR"
         style="opacity:0.999;fill:#ffffff;fill-opacity:1;fill-rule:nonzero;stroke-width:1.00157"
         id="rect4442" />
    </g>
    <g
       id="g3928"
       inkscape:label="FIND"
       style="display:inline">
      <path
         id="path3926"
         style="display:inline;fill:#ffffff;stroke:#4c0000;stroke-linecap:round"
         d="m 1146.2045,-71.811024 a 163.52736,163.52736 0 1 0 -327.0547,0 163.52737,163.52737 0 1 0 327.0547,0 z"
         inkscape:label="CircleOutside" />
      <path
         id="path3924"
         style="fill:#666666;stroke:#4c0000;stroke-width:0.962465;stroke-linecap:round"
         d="m 1117.5033,-72.5927 a 135.58177,135.545 0 1 0 -271.16339,0 135.58177,135.54501 0 1 0 271.16339,0 z"
         inkscape:label="CircleInside" />
    </g>
    <g
       id="g4084"
       inkscape:label="DB"
       style="display:inline">
      <g
         id="g4417"
         inkscape:label="Rounds">
        <path
           inkscape:label="round20"
           d="m 1212.6367,-224.01476 a 11.3386,11.3386 0 1 0 -22.6772,0 11.3386,11.3386 0 1 0 22.6772,0 z"
           style="fill:#ffffff;stroke:#4c0000;stroke-linecap:round"
           id="path3940" />
        <path
           inkscape:label="round19"
           d="m 1390.0089,-224.01476 a 11.3386,11.3386 0 1 0 -22.6772,0 11.3386,11.3386 0 1 0 22.6772,0 z"
           style="fill:#ffffff;stroke:#4c0000;stroke-linecap:round"
           id="path3942" />
        <path
           inkscape:label="round18"
           d="m 1212.6367,-170.86855 a 11.3386,11.3386 0 1 0 -22.6772,0 11.3386,11.3386 0 1 0 22.6772,0 z"
           style="fill:#ffffff;stroke:#4c0000;stroke-linecap:round"
           id="path3954" />
        <path
           inkscape:label="round17"
           d="m 1390.0089,-170.86855 a 11.3386,11.3386 0 1 0 -22.6772,0 11.3386,11.3386 0 1 0 22.6772,0 z"
           style="fill:#ffffff;stroke:#4c0000;stroke-linecap:round"
           id="path3956" />
        <path
           inkscape:label="round16"
           d="m 1212.6367,-117.72235 a 11.3386,11.3386 0 1 0 -22.6772,0 11.3386,11.3386 0 1 0 22.6772,0 z"
           style="display:inline;fill:#ffffff;stroke:#4c0000;stroke-linecap:round"
           id="path3968" />
        <path
           inkscape:label="round15"
           d="m 1390.0089,-117.72235 a 11.3386,11.3386 0 1 0 -22.6772,0 11.3386,11.3386 0 1 0 22.6772,0 z"
           style="display:inline;fill:#ffffff;stroke:#4c0000;stroke-linecap:round"
           id="path3970" />
        <path
           inkscape:label="round14"
           d="m 1212.6367,-64.576143 a 11.3386,11.3386 0 1 0 -22.6772,0 11.3386,11.3386 0 1 0 22.6772,0 z"
           style="display:inline;fill:#ffffff;stroke:#4c0000;stroke-linecap:round"
           id="path3982" />
        <path
           inkscape:label="round13"
           d="m 1390.0089,-64.576143 a 11.3386,11.3386 0 1 0 -22.6772,0 11.3386,11.3386 0 1 0 22.6772,0 z"
           style="display:inline;fill:#ffffff;stroke:#4c0000;stroke-linecap:round"
           id="path3984" />
        <path
           inkscape:label="round6"
           d="m 848.32801,193.44011 a 11.338585,11.338585 0 1 0 -22.67717,0 11.338585,11.338585 0 1 0 22.67717,0 z"
           style="fill:#ffffff;stroke:#4c0000;stroke-linecap:round"
           id="path4038" />
        <path
           inkscape:label="round5"
           d="m 1140.0743,193.44011 a 11.338583,11.338583 0 1 0 -22.6771,0 11.338583,11.338583 0 1 0 22.6771,0 z"
           style="fill:#ffffff;stroke:#4c0000;stroke-linecap:round"
           id="path4040" />
        <path
           inkscape:label="round4"
           d="m 848.32801,246.58631 a 11.338585,11.338585 0 1 0 -22.67717,0 11.338585,11.338585 0 1 0 22.67717,0 z"
           style="fill:#ffffff;stroke:#4c0000;stroke-linecap:round"
           id="path4052" />
        <path
           inkscape:label="round3"
           d="m 1192.2309,246.58631 a 11.3386,11.3386 0 1 0 -22.6772,0 11.3386,11.3386 0 1 0 22.6772,0 z"
           style="display:inline;fill:#ffffff;fill-opacity:1;stroke:#4c0000;stroke-linecap:round"
           id="path4054" />
        <path
           inkscape:label="round2"
           d="m 848.32801,299.73252 a 11.338585,11.338585 0 1 0 -22.67717,0 11.338585,11.338585 0 1 0 22.67717,0 z"
           style="fill:#ffffff;fill-opacity:1;stroke:#4c0000;stroke-linecap:round"
           id="path4066" />
        <path
           inkscape:label="round1"
           d="m 1247.0599,299.73252 a 11.3386,11.3386 0 1 0 -22.6772,0 11.3386,11.3386 0 1 0 22.6772,0 z"
           style="display:inline;fill:#ffffff;stroke:#4c0000;stroke-linecap:round"
           id="path4068" />
      </g>
      <path
         id="path4080"
         style="display:inline;fill:#ffffff;stroke:#4c0000;stroke-linecap:round"
         d="m 921.41839,-68.324225 a 22.677165,22.677165 0 1 0 -45.35433,0 22.677165,22.677165 0 1 0 45.35433,0 z"
         inkscape:label="Mag-roundL" />
      <path
         id="path4082"
         style="display:inline;fill:#ffffff;fill-opacity:1;stroke:#4c0000;stroke-linecap:round"
         d="m 1085.4542,-68.324225 a 22.677165,22.677165 0 1 0 -45.3543,0 22.677165,22.677165 0 1 0 45.3543,0 z"
         inkscape:label="Mag-roundR" />
      <path
         d="M 898.74121,-91.001389 H 1062.7771 V -45.64706 H 898.74121 Z"
         inkscape:label="Mag-rect"
         style="display:inline;opacity:0.982;fill:#ffffff;fill-opacity:1;fill-rule:nonzero;stroke-width:1.00157"
         id="rect4298" />
      <g
         style="fill:#ffffff;fill-opacity:1"
         id="g4395"
         inkscape:label="Rectangles">
        <path
           d="M 838.53534,289.30945 H 1235.804 v 22.16338 H 838.53534 Z"
           style="opacity:1;fill:#ffffff;fill-opacity:1;fill-rule:nonzero;stroke-width:1.00157"
           id="rect4365" />
        <path
           d="m 838.53534,235.36461 h 342.06916 v 21.74523 H 838.53534 Z"
           style="opacity:1;fill:#ffffff;fill-opacity:1;fill-rule:nonzero;stroke-width:1.00157"
           id="rect4367" />
        <path
           d="m 838.53534,182.67424 h 288.96056 v 21.74523 H 838.53534 Z"
           style="opacity:1;fill:#ffffff;fill-opacity:1;fill-rule:nonzero;stroke-width:1.00157"
           id="rect4369" />
        <path
           d="m 1201.4799,-235.2565 h 177.1219 v 21.58582 h -177.1219 z"
           style="opacity:1;fill:#ffffff;fill-opacity:1;fill-rule:nonzero;stroke-width:1.00157"
           id="rect4373" />
        <path
           d="m 1201.7755,-181.7355 h 176.8263 v 20.99442 h -176.8263 z"
           style="opacity:1;fill:#ffffff;fill-opacity:1;fill-rule:nonzero;stroke-width:1.00157"
           id="rect4375" />
        <path
           d="m 1201.4799,-128.21452 h 178.3047 v 20.99442 h -178.3047 z"
           style="opacity:1;fill:#ffffff;fill-opacity:1;fill-rule:nonzero;stroke-width:1.00157"
           id="rect4377" />
        <path
           d="m 1201.7755,-74.693527 h 173.5736 v 20.107336 h -173.5736 z"
           style="opacity:1;fill:#ffffff;fill-opacity:1;fill-rule:nonzero;stroke-width:1.00157"
           id="rect4379" />
      </g>
    </g>
  </g>
</svg>
